<svg width="80" height="80" viewBox="0 0 80 80" fill="none" xmlns="http://www.w3.org/2000/svg">
<circle opacity="0.1" cx="40" cy="40" r="40" fill="#009EFC"/>
<path d="M31 34.0004C31 29.5839 34.9769 26.0004 40 26.0004C45.0231 26.0004 49 29.5839 49 34.0004V40.0004C49 41.5809 49.7453 43.2822 50.8698 44.5674C51.6527 45.4622 52.7125 46.2594 54 46.6819V48.0004H26V46.6758C27.2732 46.2511 28.3258 45.4564 29.1046 44.5732C30.2295 43.2976 31 41.5952 31 40.0004V34.0004Z" stroke="#009EFC" stroke-width="4"/>
<path d="M34 52.0004H46C46 52.0004 45 56.0004 40 56.0004C35 56.0004 34 52.0004 34 52.0004Z" fill="#009EFC"/>
<path d="M36 25.0004H44C44 25.0004 43 22.0004 40 22.0004C37 22.0004 36 25.0004 36 25.0004Z" fill="#009EFC"/>
</svg>
