<svg width="16" height="16" viewBox="0 0 16 16" fill="none" xmlns="http://www.w3.org/2000/svg">
<path fill-rule="evenodd" clip-rule="evenodd" d="M14 4C14 5.10267 13.1027 6 12 6C11.132 6 10.3993 5.44133 10.1233 4.66667H2V3.33333H10.1233C10.3993 2.55867 11.132 2 12 2C13.1027 2 14 2.89733 14 4ZM12.6667 4C12.6667 3.63267 12.3673 3.33333 12 3.33333C11.6327 3.33333 11.3333 3.63267 11.3333 4C11.3333 4.36867 11.6327 4.66667 12 4.66667C12.3673 4.66667 12.6667 4.36867 12.6667 4Z" fill="#999999"/>
<path fill-rule="evenodd" clip-rule="evenodd" d="M4.79 7.33333C5.066 6.55867 5.79867 6 6.66667 6C7.53467 6 8.26733 6.55867 8.54333 7.33333H14V8.66667H8.54333C8.26733 9.44133 7.534 10 6.66667 10C5.79933 10 5.066 9.44133 4.79 8.66667H2V7.33333H4.79ZM6 8C6 8.36867 6.29933 8.66667 6.66667 8.66667C7.034 8.66667 7.33333 8.36867 7.33333 8C7.33333 7.63267 7.034 7.33333 6.66667 7.33333C6.29933 7.33333 6 7.63267 6 8Z" fill="#999999"/>
<path fill-rule="evenodd" clip-rule="evenodd" d="M10.1233 11.3333C10.3993 10.5587 11.132 10 12 10C13.1027 10 14 10.8973 14 12C14 13.1027 13.1027 14 12 14C11.1327 14 10.3993 13.4413 10.1233 12.6667H2V11.3333H10.1233ZM11.3333 12C11.3333 12.3687 11.6327 12.6667 12 12.6667C12.3673 12.6667 12.6667 12.3687 12.6667 12C12.6667 11.6327 12.3673 11.3333 12 11.3333C11.6327 11.3333 11.3333 11.6327 11.3333 12Z" fill="#999999"/>
</svg>
